<svg width="1280" height="164" viewBox="0 0 1280 164" fill="none" xmlns="http://www.w3.org/2000/svg">
<rect width="1280" height="164" fill="#2E573A"/>
<circle cx="506" cy="82" r="67" fill="#72AC43"/>
<path d="M506.422 75.44L508.982 60.72H530.87L522.806 83.184L530.87 110H509.558L506.422 90.864H505.846L502.646 110H480.758L489.398 83.184L481.334 60.72H502.646L505.846 75.44H506.422Z" fill="#FDE3CF"/>
<circle cx="238" cy="82" r="67" fill="#F8A91F"/>
<path d="M239.102 90.672V93.296H258.686V110H218.942V60.72H257.534V75.12H239.102V77.744H255.806V90.672H239.102Z" fill="#632713"/>
<circle cx="774" cy="82" r="67" fill="#FDE3CF"/>
<path d="M784.04 110.064L763.88 110V60.72H784.04V110.064Z" fill="#632713"/>
<circle cx="1042" cy="83" r="67" fill="#632713"/>
<path d="M1065.54 61.72V80.728H1053.19V111H1031.88V80.728H1019.46V61.72H1065.54Z" fill="#F8A91F"/>
</svg>
