<svg width="2379" height="3200" viewBox="0 0 2379 3200" fill="none" xmlns="http://www.w3.org/2000/svg">
<g id="Web&#226;&#128;&#148;Section Right" clip-path="url(#clip0_0_508)">
<rect width="2379" height="3200" fill="white"/>
<path id="Background" fill-rule="evenodd" clip-rule="evenodd" d="M3228 0H1892.43L1524 3200H3228V0Z" fill="#399A4B"/>
<g id="Humaaan">
<g id="Head">
<g id="Head_2">
<path id="Head_3" d="M975.306 876.901C1031.32 799.839 1132.44 887.673 1128.84 941.988C1125.25 996.303 1058.18 1097.86 1025.43 1087.51C1012.37 1083.38 992.846 1061.31 977.644 1031.37L925.28 1149.23L834.894 1092.75L956.639 967.159C952.014 935.946 955.865 903.646 975.306 876.901Z" fill="#B28B67"/>
</g>
<path id="hair" d="M1149.32 849.352C1170.12 862.349 1176.44 889.747 1163.45 910.546C1150.88 930.661 1124.84 937.237 1104.33 925.892C1090.78 922.3 1074.59 915.756 1057.73 906.73C1055.61 913.62 1052.27 920.866 1047.53 928.45C1043.34 935.147 1038.17 941.787 1032.3 948.147C1031.4 941.784 1028.41 936.13 1023.64 933.154C1010.32 924.829 994.197 929.994 986.926 941.631C977.698 956.399 979.549 972.408 991.461 981.04C966.809 995.551 941.183 1002.07 925.696 992.391C896.28 974.01 899.94 921.613 926.362 879.329C927.291 877.843 928.243 876.386 929.216 874.957C884.757 876.866 834.474 903.971 793.302 878.243C737.287 843.241 785.641 716.358 863.901 765.261C917.124 798.518 938.453 822.639 953.845 848.212C966.133 838.448 979.509 832.141 992.407 829.959C995.797 828.962 1000.19 828.723 1005.36 829.192C1008.62 829.377 1011.81 829.864 1014.9 830.663C1031.63 834.166 1053.54 842.954 1076.03 855.941C1080.23 858.366 1084.3 860.848 1088.2 863.362C1101.23 842.657 1128.56 836.38 1149.32 849.352Z" fill="#191847"/>
</g>
<g id="Bottom">
<path id="Skirt Shadow" fill-rule="evenodd" clip-rule="evenodd" d="M465.575 1876.16C465.575 1876.16 625.376 1920.85 741.317 1920.85C857.259 1920.85 956.701 1852.02 956.701 1852.02C956.701 1852.02 800.322 1806.14 699.13 1806.14C597.939 1806.14 465.575 1876.16 465.575 1876.16Z" fill="#1F28CF"/>
<path id="Leg" fill-rule="evenodd" clip-rule="evenodd" d="M833.541 1963.8C832.514 1962.26 831.647 1960.58 830.959 1958.76C816.719 1921.1 588.628 1514.84 565.904 1440.56H822.702C839.979 1497.03 917.741 1851.43 928.685 1922.14C963.214 2033.67 1034.31 2394.88 1043.38 2419.91C1052.93 2446.23 999.21 2473.65 984.895 2441.29C962.117 2389.8 907.845 2247.31 883.68 2160.31C861.025 2078.75 842.579 2005.37 833.541 1963.8Z" fill="#997659"/>
<path id="Leg_2" fill-rule="evenodd" clip-rule="evenodd" d="M623.445 2013.4C519.165 2039.76 137.733 2087.41 111.558 2094.88C84.6315 2102.57 61.0221 2047.07 94.3047 2035.04C147.263 2015.91 293.187 1971.71 381.661 1953.68C452.824 1939.17 517.761 1927.33 561.358 1920.4C557.665 1797.93 540.781 1504.04 551.847 1440.56H779.066C768.454 1501.43 678.747 1945.57 662.074 1990.02C656.783 2005.89 640.994 2012.91 623.445 2013.4V2013.4Z" fill="#B28B67"/>
<g id="Left Shoe">
<path id="shoe" fill-rule="evenodd" clip-rule="evenodd" d="M105.666 2024.28C105.988 2023.16 105.306 2022 104.158 2021.77C97.3646 2020.39 75.985 2016.36 66.1094 2018.1C54.2797 2020.18 32.2793 2028.13 32.2793 2028.13C34.6991 2041.85 75.7735 2274.79 75.7735 2274.79C75.7735 2274.79 109.256 2278.8 108.138 2257.64C107.019 2236.48 106.646 2222.42 106.646 2222.42L138.399 2095.32C138.536 2094.77 138.194 2094.22 137.644 2094.1L115.011 2089.12C115.011 2089.12 102.681 2071.52 100.567 2059.53C98.8187 2049.62 103.867 2030.57 105.666 2024.28Z" fill="#E4E4E4"/>
</g>
<g id="Right Shoe">
<path id="shoe_2" fill-rule="evenodd" clip-rule="evenodd" d="M974.102 2428.99C973.049 2428.48 971.791 2428.95 971.362 2430.04C968.824 2436.49 961.142 2456.84 961.142 2466.87C961.142 2478.88 965.144 2501.93 965.144 2501.93C979.079 2501.93 1215.62 2501.93 1215.62 2501.93C1215.62 2501.93 1225.38 2469.65 1204.35 2467.08C1183.31 2464.5 1169.4 2462.43 1169.4 2462.43L1049.75 2409.09C1049.23 2408.86 1048.63 2409.1 1048.41 2409.62L1039.58 2431.05C1039.58 2431.05 1020.11 2440.13 1007.93 2440.13C997.865 2440.13 979.986 2431.85 974.102 2428.99Z" fill="#E4E4E4"/>
</g>
<path id="Skirt" fill-rule="evenodd" clip-rule="evenodd" d="M552.582 1440.56C552.582 1440.56 702.773 1397.59 836.797 1440.56C867.883 1582.39 943.418 1638.68 956.701 1856.13C805.711 1931.16 619.195 1802.63 463.764 1875.79C419.356 1773.45 481.528 1527 552.582 1440.56Z" fill="#2B44FF"/>
</g>
<g id="Body">
<path id="Skin" d="M614.419 1383.83C614.242 1384.06 434.734 1612.07 422.26 1625.46C403.541 1645.55 409.942 1689.56 411.154 1712.35C378.023 1714.14 399.022 1668.44 356.984 1671.35C318.613 1674 283.312 1691.93 254.607 1654.29C251.078 1649.66 250.135 1636.97 265.602 1633.27C304.135 1624.07 362.147 1604.33 372.712 1594.56C394.323 1574.58 527.911 1350.23 527.911 1350.23L614.419 1383.83ZM1128.87 1693.84C1157.45 1721.53 1179.27 1748.37 1194.33 1774.36C1196.97 1782.17 1197.96 1795.56 1176.81 1781.62C1155.67 1767.68 1132.8 1753.97 1125.57 1759.81C1118.35 1765.66 1126.72 1782.07 1114.93 1788.82C1107.07 1793.32 1097.08 1765.58 1084.98 1705.58L990.489 1586.7L1055.41 1534.18L1128.87 1693.84Z" fill="#B28B67"/>
<path id="Coat Back" fill-rule="evenodd" clip-rule="evenodd" d="M913.677 1081.2L951.887 1088.81C954.423 1266.69 1008.4 1448.16 1113.83 1633.2L943.415 1729.79C858.507 1491.33 834.775 1269.83 913.677 1081.2Z" fill="#191847"/>
<path id="Shirt" fill-rule="evenodd" clip-rule="evenodd" d="M584.455 1471.74L903.69 1594.28C903.69 1594.28 896.296 1281.95 968.671 1093.41L877.881 1042.1C755.477 1134.76 676.58 1276.42 584.455 1471.74Z" fill="#DDE3E9"/>
<path id="Coat Front" d="M882.165 1043.74C893.274 1048.45 915.898 1058.29 915.997 1058.33L913.741 1133.76C870.75 1256.79 768.705 1640.48 768.705 1640.48L559.748 1560.27C553.617 1577.31 547.824 1594.74 542.429 1612.58L386.83 1552.85C572.877 1172.5 875.568 1041.37 875.765 1041.28L875.816 1041.38C875.837 1041.36 875.859 1041.34 875.88 1041.33L882.165 1043.74Z" fill="#2F3676"/>
<path id="Shade" d="M653.682 1362.75C630.896 1439.13 608.526 1532.98 617.369 1584.26L559.155 1561.92C585.736 1487.69 618.788 1421.1 653.682 1362.75Z" fill="black" fill-opacity="0.1"/>
<path id="Light" fill-rule="evenodd" clip-rule="evenodd" d="M654.727 1451.14L776.329 1442.78L757.915 1490.75L654.727 1451.14Z" fill="white" fill-opacity="0.2"/>
</g>
</g>
<g id="Humaaan_2">
<g id="Head_4">
<g id="Head_5">
<path id="Head_6" d="M1812.65 896.406C1786.37 804.832 1661.31 852.787 1646.11 905.056C1630.91 957.324 1659.2 1075.7 1693.52 1077.17C1707.2 1077.76 1733.1 1063.69 1757.62 1040.76L1766.52 1169.42L1870.77 1147.26L1799.32 987.606C1814.34 959.857 1821.77 928.187 1812.65 896.406Z" fill="#B28B67"/>
</g>
<path id="Hair" fill-rule="evenodd" clip-rule="evenodd" d="M1811.78 1006.83C1812.49 945.84 1841.33 898.235 1830.11 873.427C1818.89 848.619 1792.88 847.518 1792.88 847.518C1792.88 847.518 1769.17 798.645 1701.31 821.12C1633.45 843.594 1597.17 881.471 1628.99 941.085C1645.82 937.506 1664.86 927.096 1695.18 931.554C1709.62 933.677 1720.87 958.285 1720.87 958.285L1733.57 955.585C1733.57 955.585 1745.54 920.998 1765.25 925.303C1784.95 929.608 1781.81 963.04 1781.81 963.04L1798.27 1009.71L1811.78 1006.83Z" fill="#191847"/>
</g>
<g id="Bottom_2">
<path id="Leg_3" fill-rule="evenodd" clip-rule="evenodd" d="M2102.44 1440.56L1772.46 1992.24L1525.07 2458.63H1471.78L1886.29 1440.56L2102.44 1440.56Z" fill="#997659"/>
<g id="Right Shoe_2">
<path id="shoe_3" fill-rule="evenodd" clip-rule="evenodd" d="M1552.14 2428.99C1553.19 2428.48 1554.45 2428.95 1554.88 2430.04C1557.42 2436.49 1565.1 2456.84 1565.1 2466.87C1565.1 2478.88 1561.1 2501.93 1561.1 2501.93C1547.16 2501.93 1310.62 2501.93 1310.62 2501.93C1310.62 2501.93 1300.86 2469.65 1321.9 2467.08C1342.93 2464.5 1356.84 2462.43 1356.84 2462.43L1476.5 2409.09C1477.01 2408.86 1477.61 2409.1 1477.83 2409.62L1486.66 2431.05C1486.66 2431.05 1506.13 2440.13 1518.31 2440.13C1528.38 2440.13 1546.26 2431.85 1552.14 2428.99Z" fill="#E4E4E4"/>
</g>
<path id="Pant" fill-rule="evenodd" clip-rule="evenodd" d="M1593.77 2383.95L1491.01 2352.86C1491.01 2352.86 1558.55 2150.97 1656.56 1908.51C1754.57 1666.06 1867.08 1440.56 1867.08 1440.56H2157.32C2157.32 1440.56 2032.23 1725.8 1892.1 1958.92C1751.97 2192.04 1593.77 2383.95 1593.77 2383.95Z" fill="#DB2721"/>
<path id="Leg_4" fill-rule="evenodd" clip-rule="evenodd" d="M2124.13 1440.56C2155.28 1634.42 2215.34 1882.1 2221.01 1889.75C2224.79 1894.84 2360.85 1940.43 2629.18 2026.52L2617.67 2073.51C2297.68 2027.34 2129.08 1991.52 2111.86 1966.05C2086.02 1927.85 1957.01 1626.02 1907.05 1440.56H2124.13Z" fill="#B28B67"/>
<path id="Pant_2" fill-rule="evenodd" clip-rule="evenodd" d="M2534.85 1985.9L2514.58 2061.58C2275.25 2082.57 2128.61 2067.4 2074.65 2016.08C2020.7 1964.75 1959.21 1772.91 1890.18 1440.56H2166.93C2210.67 1712.71 2235.12 1854.5 2240.29 1865.93C2245.45 1877.35 2343.64 1917.34 2534.85 1985.9Z" fill="#FF4133"/>
</g>
<g id="Body_2">
<path id="Skin_2" d="M2057.18 1306.39C2057.37 1306.57 2335.5 1585.1 2347.98 1598.49C2366.69 1618.58 2360.29 1662.59 2359.08 1685.38C2392.21 1687.17 2371.21 1641.47 2413.25 1644.38C2451.62 1647.03 2486.92 1664.96 2515.63 1627.32C2519.16 1622.69 2520.1 1610 2504.63 1606.3C2466.1 1597.1 2408.09 1577.36 2397.52 1567.59C2375.91 1547.61 2147.84 1271.2 2147.84 1271.2L2057.18 1306.39ZM1342.24 1468.91C1334.41 1471.65 1323.18 1479.19 1347.39 1487.44C1371.6 1495.69 1396.71 1505.46 1396.57 1514.88C1396.44 1524.29 1378.21 1527.8 1380.21 1541.44C1381.53 1550.53 1409.74 1541.26 1464.82 1513.64L1617.86 1515.31L1619.08 1430.7L1446.81 1471.21C1407.08 1465.56 1372.22 1464.8 1342.24 1468.91Z" fill="#997659"/>
<path id="Clothes Back" fill-rule="evenodd" clip-rule="evenodd" d="M1788.64 1078.72L1719.38 1110.74C1762.67 1275.84 1705.71 1412.48 1479.22 1460.57L1529.15 1675.41C1738.59 1624.6 1882.92 1477.54 1835.76 1247.48C1823.55 1187.92 1808.51 1126.83 1788.64 1078.72Z" fill="#E6E6E6"/>
<path id="Clothes" d="M1815.81 1044.51L1815.78 1044.6L1717.55 1110.6C1788.65 1295.84 1775.01 1436.67 1797.03 1584.48L2087.89 1472.83C2110.05 1518.32 2131.13 1565.72 2151.52 1614.89L2369.3 1531.29C2219.15 1287.65 2037.01 1124.49 1822.86 1041.8L1815.81 1044.51Z" fill="white"/>
<path id="Shade_2" d="M1935.95 1220.06C1976.22 1308.84 2020.98 1420.97 2028.77 1495.52L2087.89 1472.83C2042.77 1380.23 1993.18 1295.56 1935.95 1220.06Z" fill="black" fill-opacity="0.1"/>
</g>
</g>
</g>
<defs>
<clipPath id="clip0_0_508">
<rect width="2379" height="3200" fill="white"/>
</clipPath>
</defs>
</svg>
