<svg width="2379" height="3200" viewBox="0 0 2379 3200" fill="none" xmlns="http://www.w3.org/2000/svg">
<g id="Web&#226;&#128;&#148;Section Right">
<g id="Humaaan">
<g id="Head">
<g id="Head_2">
<path id="Head_3" d="M861.459 840.304C910.708 772.553 999.604 849.776 996.443 897.529C993.283 945.281 934.318 1034.57 905.526 1025.47C894.044 1021.84 876.88 1002.43 863.514 976.108L817.477 1079.73L738.011 1030.08L845.047 919.659C840.981 892.217 844.366 863.818 861.459 840.304Z" fill="#B28B67"/>
</g>
<path id="hair" d="M1014.45 816.085C1032.73 827.511 1038.3 851.599 1026.87 869.885C1015.82 887.569 992.93 893.351 974.896 883.378C962.986 880.221 948.745 874.467 933.923 866.531C932.058 872.588 929.122 878.959 924.955 885.627C921.276 891.514 916.724 897.352 911.565 902.944C910.772 897.349 908.142 892.378 903.955 889.762C892.242 882.443 878.068 886.984 871.675 897.214C863.562 910.198 865.189 924.274 875.662 931.863C853.988 944.621 831.459 950.35 817.843 941.843C791.981 925.682 795.199 879.616 818.428 842.44C819.245 841.134 820.082 839.852 820.938 838.596C781.85 840.274 737.643 864.104 701.444 841.486C652.197 810.713 694.709 699.159 763.514 742.153C810.306 771.392 829.058 792.599 842.59 815.082C853.394 806.498 865.154 800.953 876.494 799.035C879.475 798.157 883.335 797.948 887.885 798.36C890.747 798.523 893.549 798.952 896.264 799.654C910.973 802.733 930.238 810.46 950.015 821.878C953.708 824.01 957.281 826.192 960.714 828.402C972.167 810.199 996.197 804.68 1014.45 816.085Z" fill="#191847"/>
</g>
<g id="Bottom">
<path id="Skirt Shadow" fill-rule="evenodd" clip-rule="evenodd" d="M413.312 1718.83C413.312 1718.83 553.806 1758.13 655.74 1758.13C757.673 1758.13 845.101 1697.61 845.101 1697.61C845.101 1697.61 707.615 1657.28 618.65 1657.28C529.684 1657.28 413.312 1718.83 413.312 1718.83Z" fill="#1F28CF"/>
<path id="Leg" fill-rule="evenodd" clip-rule="evenodd" d="M736.822 1795.89C735.919 1794.53 735.156 1793.06 734.551 1791.46C722.031 1758.35 521.498 1401.17 501.52 1335.86H727.292C742.482 1385.51 810.849 1697.09 820.47 1759.26C850.828 1857.31 913.331 2174.89 921.31 2196.89C929.703 2220.03 882.474 2244.14 869.889 2215.69C849.863 2170.42 802.148 2045.15 780.903 1968.66C760.985 1896.95 744.767 1832.44 736.822 1795.89Z" fill="#997659"/>
<path id="Leg_2" fill-rule="evenodd" clip-rule="evenodd" d="M552.109 1839.5C460.428 1862.67 125.08 1904.56 102.067 1911.13C78.3936 1917.89 57.6367 1869.09 86.8982 1858.52C133.458 1841.71 261.752 1802.85 339.536 1786.99C402.102 1774.23 459.193 1763.82 497.523 1757.73C494.276 1650.06 479.432 1391.67 489.162 1335.86H688.928C679.598 1389.38 600.73 1779.86 586.071 1818.94C581.419 1832.9 567.538 1839.06 552.109 1839.5V1839.5Z" fill="#B28B67"/>
<g id="Left Shoe">
<path id="shoe" fill-rule="evenodd" clip-rule="evenodd" d="M96.8118 1849.32C97.1316 1848.2 96.4523 1847.03 95.3046 1846.8C89.0672 1845.54 70.6709 1842.11 62.1092 1843.62C51.7087 1845.46 32.3664 1852.44 32.3664 1852.44C34.4938 1864.51 70.6057 2069.31 70.6057 2069.31C70.6057 2069.31 100.043 2072.83 99.0597 2054.23C98.0766 2035.62 97.7481 2023.26 97.7481 2023.26L125.635 1911.64C125.772 1911.09 125.43 1910.54 124.88 1910.42L105.102 1906.07C105.102 1906.07 94.2626 1890.6 92.4039 1880.06C90.8902 1871.47 95.1705 1855.1 96.8118 1849.32Z" fill="#E4E4E4"/>
</g>
<g id="Right Shoe">
<path id="shoe_2" fill-rule="evenodd" clip-rule="evenodd" d="M860.645 2204.99C859.591 2204.48 858.323 2204.95 857.896 2206.04C855.573 2211.96 849.006 2229.48 849.006 2238.18C849.006 2248.74 852.524 2269 852.524 2269C864.776 2269 1072.74 2269 1072.74 2269C1072.74 2269 1081.32 2240.62 1062.83 2238.36C1044.33 2236.1 1032.1 2234.27 1032.1 2234.27L927.018 2187.43C926.504 2187.2 925.901 2187.44 925.687 2187.96L917.969 2206.68C917.969 2206.68 900.848 2214.67 890.144 2214.67C881.427 2214.67 866.053 2207.61 860.645 2204.99Z" fill="#E4E4E4"/>
</g>
<path id="Skirt" fill-rule="evenodd" clip-rule="evenodd" d="M489.807 1335.86C489.807 1335.86 621.853 1298.09 739.684 1335.86C767.015 1460.56 833.423 1510.05 845.101 1701.23C712.354 1767.19 548.372 1654.19 411.72 1718.51C372.677 1628.54 427.338 1411.86 489.807 1335.86Z" fill="#2B44FF"/>
</g>
<g id="Body">
<path id="Skin" d="M544.173 1285.99C544.173 1285.99 386.206 1486.65 375.231 1498.43C358.773 1516.09 364.401 1554.78 365.467 1574.81C336.338 1576.4 354.8 1536.22 317.84 1538.77C284.106 1541.1 253.07 1556.87 227.833 1523.77C224.73 1519.7 223.901 1508.54 237.499 1505.29C271.377 1497.2 322.379 1479.85 331.668 1471.26C350.662 1453.7 468.037 1256.58 468.117 1256.45L544.173 1285.99ZM996.47 1558.54C1021.59 1582.89 1040.78 1606.49 1054.02 1629.34C1056.34 1636.2 1057.21 1647.98 1038.62 1635.72C1020.03 1623.46 999.924 1611.41 993.573 1616.55C987.222 1621.68 994.582 1636.12 984.213 1642.05C977.3 1646.01 968.522 1621.61 957.879 1568.87L874.807 1464.35L931.881 1418.17L996.47 1558.54Z" fill="#B28B67"/>
<path id="Coat Back" fill-rule="evenodd" clip-rule="evenodd" d="M807.275 1019.92L840.869 1026.61C843.098 1183 890.558 1342.54 983.249 1505.23L833.421 1590.15C758.771 1380.5 737.906 1185.76 807.275 1019.92Z" fill="#191847"/>
<path id="Shirt" fill-rule="evenodd" clip-rule="evenodd" d="M517.83 1363.27L798.495 1471.01C798.495 1471.01 791.994 1196.42 855.625 1030.65L775.804 985.541C668.189 1067.01 598.824 1191.55 517.83 1363.27Z" fill="#DDE3E9"/>
<path id="Coat Front" d="M779.571 986.987C789.359 991.136 809.316 999.817 809.316 999.817L807.332 1066.13C769.535 1174.3 679.818 1511.63 679.818 1511.63L496.107 1441.11C490.717 1456.09 485.624 1471.42 480.881 1487.1L344.081 1434.59C507.655 1100.18 773.784 984.896 773.944 984.827L773.989 984.913C774.007 984.897 774.027 984.882 774.045 984.866L779.571 986.987Z" fill="#2F3676"/>
<path id="Shade" d="M578.694 1267.45C558.66 1334.61 538.992 1417.12 546.767 1462.21L495.586 1442.56C518.956 1377.3 548.015 1318.75 578.694 1267.45Z" fill="black" fill-opacity="0.1"/>
<path id="Light" fill-rule="evenodd" clip-rule="evenodd" d="M579.611 1345.17L686.522 1337.82L670.332 1379.99L579.611 1345.17Z" fill="white" fill-opacity="0.2"/>
</g>
</g>
<g id="Humaaan_2">
<g id="Head_4">
<g id="Head_5">
<path id="Head_6" d="M1597.64 857.453C1574.53 776.943 1464.58 819.105 1451.22 865.059C1437.86 911.012 1462.73 1015.09 1492.9 1016.38C1504.93 1016.89 1527.69 1004.53 1549.26 984.364L1557.08 1097.48L1648.73 1078L1585.92 937.635C1599.12 913.238 1605.66 885.394 1597.64 857.453Z" fill="#B28B67"/>
</g>
<path id="Hair" fill-rule="evenodd" clip-rule="evenodd" d="M1596.87 954.539C1597.5 900.915 1622.85 859.062 1612.99 837.251C1603.12 815.44 1580.26 814.472 1580.26 814.472C1580.26 814.472 1559.41 771.504 1499.75 791.263C1440.09 811.022 1408.19 844.323 1436.16 896.735C1450.97 893.588 1467.7 884.435 1494.36 888.355C1507.05 890.221 1516.94 911.856 1516.94 911.856L1528.11 909.483C1528.11 909.483 1538.64 879.075 1555.96 882.86C1573.28 886.644 1570.52 916.037 1570.52 916.037L1584.99 957.064L1596.87 954.539Z" fill="#191847"/>
</g>
<g id="Bottom_2">
<path id="Leg_3" fill-rule="evenodd" clip-rule="evenodd" d="M1852.42 1335.86L1562.3 1820.89L1344.8 2230.93H1297.95L1662.38 1335.86L1852.42 1335.86Z" fill="#997659"/>
<g id="Right Shoe_2">
<path id="shoe_3" fill-rule="evenodd" clip-rule="evenodd" d="M1368.35 2204.99C1369.41 2204.48 1370.68 2204.95 1371.1 2206.04C1373.43 2211.96 1379.99 2229.48 1379.99 2238.18C1379.99 2248.74 1376.48 2269 1376.48 2269C1364.22 2269 1156.26 2269 1156.26 2269C1156.26 2269 1147.68 2240.62 1166.17 2238.36C1184.67 2236.1 1196.9 2234.27 1196.9 2234.27L1301.98 2187.43C1302.5 2187.2 1303.1 2187.44 1303.31 2187.96L1311.03 2206.68C1311.03 2206.68 1328.15 2214.67 1338.86 2214.67C1347.57 2214.67 1362.95 2207.61 1368.35 2204.99Z" fill="#E4E4E4"/>
</g>
<path id="Pant" fill-rule="evenodd" clip-rule="evenodd" d="M1405.2 2165.27L1314.86 2137.94C1314.86 2137.94 1374.23 1960.44 1460.4 1747.28C1546.57 1534.12 1645.49 1335.86 1645.49 1335.86H1900.66C1900.66 1335.86 1790.69 1586.65 1667.49 1791.6C1544.29 1996.55 1405.2 2165.27 1405.2 2165.27Z" fill="#DB2721"/>
<path id="Leg_4" fill-rule="evenodd" clip-rule="evenodd" d="M1871.48 1335.86C1898.87 1506.3 1951.68 1724.06 1956.66 1730.78C1959.98 1735.26 2079.6 1775.34 2315.51 1851.03L2305.39 1892.34C2024.07 1851.75 1875.84 1820.26 1860.69 1797.87C1837.98 1764.28 1724.56 1498.92 1680.63 1335.86H1871.48Z" fill="#B28B67"/>
<path id="Pant_2" fill-rule="evenodd" clip-rule="evenodd" d="M2232.59 1815.32L2214.76 1881.85C2004.35 1900.31 1875.42 1886.97 1827.99 1841.85C1780.55 1796.73 1726.49 1628.06 1665.8 1335.86H1909.12C1947.57 1575.14 1969.07 1699.8 1973.61 1709.84C1978.15 1719.88 2064.48 1755.04 2232.59 1815.32Z" fill="#FF4133"/>
<g id="Left Shoe_2">
<path id="shoe_4" fill-rule="evenodd" clip-rule="evenodd" d="M2296.17 1837.61C2295.85 1836.48 2296.53 1835.32 2297.68 1835.09C2303.91 1833.83 2322.31 1830.4 2330.87 1831.91C2341.27 1833.74 2360.62 1840.73 2360.62 1840.73C2358.49 1852.79 2322.38 2057.59 2322.38 2057.59C2322.38 2057.59 2292.94 2061.12 2293.92 2042.51C2294.91 2023.91 2295.23 2011.55 2295.23 2011.55L2267.35 1899.93C2267.21 1899.38 2267.55 1898.83 2268.1 1898.71L2287.88 1894.36C2287.88 1894.36 2298.72 1878.88 2300.58 1868.34C2302.09 1859.76 2297.81 1843.39 2296.17 1837.61Z" fill="#E4E4E4"/>
</g>
</g>
<g id="Body_2">
<path id="Skin_2" d="M1812.63 1217.9C1812.63 1217.9 2057.31 1462.94 2068.28 1474.72C2084.74 1492.38 2079.11 1531.07 2078.05 1551.1C2107.18 1552.68 2088.72 1512.5 2125.68 1515.06C2159.41 1517.39 2190.45 1533.16 2215.68 1500.06C2218.79 1495.99 2219.61 1484.83 2206.02 1481.58C2172.14 1473.49 2121.14 1456.14 2111.85 1447.55C2092.86 1429.99 1892.59 1187.28 1892.33 1186.96L1812.63 1217.9ZM1184.06 1360.79C1177.18 1363.2 1167.31 1369.83 1188.59 1377.08C1209.88 1384.33 1231.95 1392.92 1231.83 1401.2C1231.71 1409.48 1215.69 1412.57 1217.44 1424.56C1218.61 1432.55 1243.41 1424.4 1291.83 1400.11L1426.38 1401.58L1427.45 1327.19L1276 1362.81C1241.06 1357.85 1210.42 1357.17 1184.06 1360.79Z" fill="#997659"/>
<path id="Clothes Back" fill-rule="evenodd" clip-rule="evenodd" d="M1576.53 1017.74L1515.63 1045.89C1553.69 1191.05 1503.62 1311.18 1304.49 1353.45L1348.39 1542.34C1532.52 1497.67 1659.42 1368.38 1617.95 1166.11C1607.22 1113.75 1594 1060.04 1576.53 1017.74Z" fill="#E6E6E6"/>
<path id="Clothes" d="M1600.41 987.663L1600.39 987.739L1514.02 1045.77C1576.54 1208.63 1564.55 1332.45 1583.9 1462.4L1839.62 1364.24C1859.11 1404.23 1877.64 1445.9 1895.56 1489.14L2087.04 1415.64C1955.03 1201.43 1794.89 1057.98 1606.62 985.283L1600.41 987.663Z" fill="white"/>
<path id="Shade_2" d="M1706.04 1142C1741.44 1220.06 1780.8 1318.64 1787.65 1384.19L1839.62 1364.24C1799.95 1282.82 1756.36 1208.38 1706.04 1142Z" fill="black" fill-opacity="0.1"/>
</g>
</g>
</g>
</svg>
